<svg width="113" height="113" viewBox="0 0 113 113" fill="none" xmlns="http://www.w3.org/2000/svg">
<circle cx="56.5" cy="56.5" r="56.5" fill="#2B7CE5"/>
<path d="M34.075 42.3701C26.6025 42.3701 20.5455 48.4272 20.5455 55.8996C20.5455 63.372 26.6025 69.4291 34.075 69.4291C35.3038 69.4291 36.3134 68.5263 36.4982 67.35H36.5371V44.8332C36.5371 43.474 35.4342 42.3701 34.075 42.3701Z" fill="white"/>
<path d="M88.6656 31.3293C88.6656 29.9701 87.5635 28.8672 86.2034 28.8672C85.6393 28.8672 85.1259 29.0646 84.7111 29.3833L63.0455 41.8923H43.515C42.1549 41.8923 41.0529 42.9943 41.0529 44.3544V67.7252H41.0837C41.2349 68.9395 42.2591 69.8831 43.515 69.8831H60.845L84.5337 83.5593C84.9728 83.9668 85.5569 84.2212 86.2034 84.2212C87.5626 84.2212 88.6656 83.1183 88.6656 81.7591C88.6656 81.6658 88.6484 81.5771 88.6384 81.4865H88.6656V77.3175V35.6396V31.4724H88.6511C88.6538 31.4244 88.6656 31.3791 88.6656 31.3293Z" fill="white"/>
</svg>
