<svg width="158" height="158" viewBox="0 0 158 158" fill="none" xmlns="http://www.w3.org/2000/svg">
<path d="M23.1324 53.2274C17.6322 52.7269 13.1667 57.1438 13.1667 62.6667V118.187C13.1667 123.855 17.871 128.503 23.5164 129.016C34.6034 130.024 53.4742 133.158 74.55 142.73C77.3714 144.012 80.6286 144.012 83.45 142.73C104.526 133.158 123.397 130.024 134.484 129.016C140.129 128.503 144.833 123.855 144.833 118.187V62.6667C144.833 57.1438 140.368 52.7269 134.868 53.2274C123.107 54.2976 102.754 57.4102 83.843 66.4629C80.7858 67.9264 77.2142 67.9264 74.157 66.4629C55.2462 57.4102 34.8929 54.2976 23.1324 53.2274Z" fill="#F5F6ED"/>
<path d="M23.1324 53.2274C17.6322 52.7269 13.1667 57.1438 13.1667 62.6667V118.187C13.1667 123.855 17.871 128.503 23.5164 129.016C34.6034 130.024 53.4742 133.158 74.55 142.73C77.3714 144.012 80.6286 144.012 83.45 142.73C104.526 133.158 123.397 130.024 134.484 129.016C140.129 128.503 144.833 123.855 144.833 118.187V62.6667C144.833 57.1438 140.368 52.7269 134.868 53.2274C123.107 54.2976 102.754 57.4102 83.843 66.4629C80.7858 67.9264 77.2142 67.9264 74.157 66.4629C55.2462 57.4102 34.8929 54.2976 23.1324 53.2274Z" fill="white"/>
<path d="M79 52.6667C89.9076 52.6667 98.75 43.8243 98.75 32.9167C98.75 22.009 89.9076 13.1667 79 13.1667C68.0924 13.1667 59.25 22.009 59.25 32.9167C59.25 43.8243 68.0924 52.6667 79 52.6667Z" fill="#FFC700"/>
</svg>
