<svg width="113" height="113" viewBox="0 0 113 113" fill="none" xmlns="http://www.w3.org/2000/svg">
<circle cx="56.5" cy="56.5" r="56.5" fill="#2B7CE5"/>
<g clip-path="url(#clip0_424_222)">
<path d="M50.3333 36.75V75.25C50.3154 76.7605 49.2065 77.9803 47.8333 78H42.8333C41.4601 77.9803 40.3513 76.7605 40.3333 75.25V36.75C40.3513 35.2395 41.4601 34.0197 42.8333 34H47.8333C49.2065 34.0197 50.3154 35.2395 50.3333 36.75ZM71.1666 34H66.1666C64.7934 34.0197 63.6846 35.2395 63.6666 36.75V75.25C63.6846 76.7605 64.7934 77.9803 66.1666 78H71.1666C72.5399 77.9803 73.6487 76.7605 73.6666 75.25V36.75C73.6487 35.2395 72.5399 34.0197 71.1666 34Z" fill="white"/>
</g>
<defs>
<clipPath id="clip0_424_222">
<rect width="80" height="88" fill="white" transform="translate(17 12)"/>
</clipPath>
</defs>
</svg>
