<svg width="70" height="70" viewBox="0 0 70 70" fill="none" xmlns="http://www.w3.org/2000/svg">
<path d="M9.82324 23.5443C7.62206 23.3569 5.83331 25.1242 5.83331 27.3333V52.8079C5.83331 55.0754 7.71505 56.9327 9.97475 57.1205C14.849 57.5255 23.5186 58.8812 33.2217 63.323C34.3488 63.8389 35.6512 63.8389 36.7782 63.323C46.4814 58.8812 55.1509 57.5255 60.0252 57.1205C62.2849 56.9327 64.1666 55.0754 64.1666 52.8079V27.3333C64.1666 25.1242 62.3779 23.3569 60.1767 23.5443C55.0006 23.9849 45.6047 25.3455 36.935 29.547C35.7149 30.1383 34.285 30.1383 33.0649 29.547C24.3952 25.3455 14.9993 23.9849 9.82324 23.5443Z" fill="#F5F6ED"/>
<path d="M9.82324 23.5443C7.62206 23.3569 5.83331 25.1242 5.83331 27.3333V52.8079C5.83331 55.0754 7.71505 56.9327 9.97475 57.1205C14.849 57.5255 23.5186 58.8812 33.2217 63.323C34.3488 63.8389 35.6512 63.8389 36.7782 63.323C46.4814 58.8812 55.1509 57.5255 60.0252 57.1205C62.2849 56.9327 64.1666 55.0754 64.1666 52.8079V27.3333C64.1666 25.1242 62.3779 23.3569 60.1767 23.5443C55.0006 23.9849 45.6047 25.3455 36.935 29.547C35.7149 30.1383 34.285 30.1383 33.0649 29.547C24.3952 25.3455 14.9993 23.9849 9.82324 23.5443Z" fill="#115FC4"/>
<path d="M35 23.3333C39.8325 23.3333 43.75 19.4158 43.75 14.5833C43.75 9.75082 39.8325 5.83331 35 5.83331C30.1675 5.83331 26.25 9.75082 26.25 14.5833C26.25 19.4158 30.1675 23.3333 35 23.3333Z" fill="#FFC700"/>
</svg>
